<svg xmlns="http://www.w3.org/2000/svg" viewBox="0 0 21.41 37.04"><defs><style>.cls-1{fill:#2c2c2c;}</style></defs><title>Asset 1</title><g id="Layer_2" data-name="Layer 2"><g id="Draw_Layer" data-name="Draw Layer"><path class="cls-1" d="M8.09.7A15,15,0,0,0,8,3.3c0,.6,0,1.21,0,1.81,0,1.27,0,2.54,0,3.8q0,3.59,0,7.17c0,2.51,0,5-.07,7.53S7.64,28.54,7.4,31c-.06.63-.13,1.25-.2,1.87l0,.13L7,32.79a14.4,14.4,0,0,1-1.37-2.22c-.43-.86-.86-1.74-1.25-2.63a16.22,16.22,0,0,1-.7-2.59c-.12-.57-.24-1.15-.37-1.72-.26-1.18-.51-2.34-.79-3.51a1.32,1.32,0,0,0-1.61-.91,1.32,1.32,0,0,0-.77.6,1.34,1.34,0,0,0-.13,1c.24,1.38.47,2.75.74,4.12.18.9.36,1.8.58,2.69a18.74,18.74,0,0,0,1.28,3.2A19,19,0,0,0,4.48,34a7.75,7.75,0,0,0,1.63,1.75,4.1,4.1,0,0,0,1.14.63l.19,0A1.46,1.46,0,0,0,8.58,37a3.51,3.51,0,0,0,2.61-1.77c.28-.36.52-.77.79-1.14l.64-.91c1.53-1.94,3.07-3.88,4.58-5.84.7-.91,1.39-1.82,2-2.77.36-.54.71-1.09,1.06-1.64.15-.24.28-.48.42-.72a7.32,7.32,0,0,0,.65-1.39,1.26,1.26,0,0,0-.58-1.41,1.23,1.23,0,0,0-1.5.2c-.86,1-1.65,2-2.46,3s-1.55,1.9-2.31,2.86q-2.19,2.79-4.4,5.56c.1-1.07.16-2.15.24-3.23.18-2.53.23-5.05.21-7.58q0-3.57-.06-7.14c0-2.51-.05-5-.16-7.54,0-.66-.07-1.32-.13-2,0-.06,0-.11,0-.17a.89.89,0,0,0,.22-.87c-.09-.28-.17-.57-.26-.86S10,1,9.92.7A1,1,0,0,0,9,0a.94.94,0,0,0-.91.7Zm4.46,32.61-.12.16.12-.16Z"/></g></g></svg>