<?xml version="1.0" encoding="utf-8"?>
<!-- Generator: Adobe Illustrator 24.2.1, SVG Export Plug-In . SVG Version: 6.00 Build 0)  -->
<svg version="1.1" id="Capa_1" xmlns="http://www.w3.org/2000/svg" xmlns:xlink="http://www.w3.org/1999/xlink" x="0px" y="0px"
	 viewBox="0 0 385 385" style="enable-background:new 0 0 385 385;" xml:space="preserve">
<style type="text/css">
	.st0{fill:#BFB6FD;}
</style>
<g id="Menu_1_">
	<path class="st0" d="M0,120.3h384.9c0,0,0-5.4,0-12s0-12,0-12H0c0,0,0,5.4,0,12S0,120.3,0,120.3z"/>
	<path class="st0" d="M385,264.7H33.7c0,0,0,5.4,0,12s0,12,0,12h351.1c0,0,0-5.4,0-12C385,270.1,385,264.7,385,264.7z"/>
	<path class="st0" d="M385,180.6H81.1c0,0,0,5.4,0,12s0,12,0,12h303.8c0,0,0-5.4,0-12C385,186,385,180.6,385,180.6z"/>
</g>
</svg>
